# MagicaVoxel @ Ephtracy

# group
o 

# material
mtllib floorrun.mtl
usemtl palette

# normals
vn -1 0 0
vn 1 0 0
vn 0 0 1
vn 0 0 -1
vn 0 -1 0
vn 0 1 0

# texcoords
vt 0.322266 0.5
vt 0.443359 0.5
vt 0.630859 0.5
vt 0.720703 0.5
vt 0.724609 0.5

# verts
v -1.3 0 2
v -1.3 0 -1.8
v -1.3 0.2 -0.7
v -1.3 0.2 -0.8
v -1.3 0.3 2
v -1.3 0.3 -0.7
v -1.3 0.3 -0.8
v -1.3 0.3 -1.8
v 0.3 0 0.2
v 0.3 0 -2.38419e-007
v 0.3 0 -0.3
v 0.3 0 -0.6
v 0.3 0 -0.9
v 0.3 0 -1.1
v 0.3 0 -1.7
v 0.3 0 -1.8
v 0.3 0.1 1.5
v 0.3 0.1 1.4
v 0.3 0.1 1.3
v 0.3 0.1 0.9
v 0.3 0.1 0.7
v 0.3 0.1 0.6
v 0.3 0.1 0.5
v 0.3 0.1 0.3
v 0.3 0.1 0.2
v 0.3 0.1 0.0999999
v 0.3 0.1 -2.38419e-007
v 0.3 0.1 -0.3
v 0.3 0.1 -0.6
v 0.3 0.1 -0.8
v 0.3 0.1 -0.9
v 0.3 0.1 -1
v 0.3 0.1 -1.1
v 0.3 0.1 -1.7
v 0.3 0.1 -1.8
v 0.3 0.2 1.5
v 0.3 0.2 1.3
v 0.3 0.2 1.2
v 0.3 0.2 0.9
v 0.3 0.2 0.7
v 0.3 0.2 0.6
v 0.3 0.2 0.5
v 0.3 0.2 0.3
v 0.3 0.2 0.2
v 0.3 0.2 0.0999999
v 0.3 0.2 -2.38419e-007
v 0.3 0.2 -0.8
v 0.3 0.2 -1
v 0.3 0.2 -1.6
v 0.3 0.2 -1.7
v 0.3 0.3 1.5
v 0.3 0.3 1.3
v 0.3 0.3 1.2
v 0.3 0.3 -1.6
v 0.3 0.3 -1.7
v 0.4 0 2
v 0.4 0 1.4
v 0.4 0 1.3
v 0.4 0 0.3
v 0.4 0 0.2
v 0.4 0 -2.38419e-007
v 0.4 0 -0.1
v 0.4 0 -0.3
v 0.4 0 -0.6
v 0.4 0 -0.9
v 0.4 0 -1.1
v 0.4 0 -1.7
v 0.4 0.1 1.6
v 0.4 0.1 1.5
v 0.4 0.1 1.4
v 0.4 0.1 1.3
v 0.4 0.1 0.9
v 0.4 0.1 0.7
v 0.4 0.1 0.6
v 0.4 0.1 0.5
v 0.4 0.1 0.4
v 0.4 0.1 0.3
v 0.4 0.1 0.2
v 0.4 0.1 0.0999999
v 0.4 0.1 -2.38419e-007
v 0.4 0.1 -0.1
v 0.4 0.1 -0.3
v 0.4 0.1 -0.6
v 0.4 0.1 -0.8
v 0.4 0.1 -0.9
v 0.4 0.1 -1
v 0.4 0.1 -1.1
v 0.4 0.1 -1.2
v 0.4 0.1 -1.5
v 0.4 0.1 -1.7
v 0.4 0.1 -1.8
v 0.4 0.2 1.6
v 0.4 0.2 1.5
v 0.4 0.2 1.3
v 0.4 0.2 1.2
v 0.4 0.2 0.9
v 0.4 0.2 0.7
v 0.4 0.2 0.6
v 0.4 0.2 0.5
v 0.4 0.2 0.4
v 0.4 0.2 0.3
v 0.4 0.2 0.2
v 0.4 0.2 0.0999999
v 0.4 0.2 -2.38419e-007
v 0.4 0.2 -0.2
v 0.4 0.2 -0.3
v 0.4 0.2 -0.8
v 0.4 0.2 -1
v 0.4 0.2 -1.2
v 0.4 0.2 -1.5
v 0.4 0.2 -1.6
v 0.4 0.2 -1.7
v 0.4 0.3 2
v 0.4 0.3 1.5
v 0.4 0.3 1.2
v 0.4 0.3 -0.2
v 0.4 0.3 -0.3
v 0.4 0.3 -1.6
v 0.4 0.3 -1.7
v 0.4 0.3 -1.8
v -1.3 0 2
v -1.3 0.3 2
v -0.0999999 0.2 2
v -0.0999999 0.3 2
v 0 0.2 2
v 0 0.3 2
v 0.4 0 2
v 0.4 0.3 2
v 0.3 0.1 1.3
v 0.3 0.2 1.3
v 0.4 0.1 1.3
v 0.4 0.2 1.3
v 0.3 0.2 1.2
v 0.3 0.3 1.2
v 0.4 0.2 1.2
v 0.4 0.3 1.2
v 0.3 0.1 0.7
v 0.3 0.2 0.7
v 0.4 0.1 0.7
v 0.4 0.2 0.7
v 0.3 0.1 0.5
v 0.3 0.2 0.5
v 0.4 0.1 0.5
v 0.4 0.2 0.5
v 0.3 0.1 0.2
v 0.3 0.2 0.2
v 0.4 0.1 0.2
v 0.4 0.2 0.2
v 0.3 0 -2.38419e-007
v 0.3 0.1 -2.38419e-007
v 0.3 0.2 -2.38419e-007
v 0.4 0 -2.38419e-007
v 0.4 0.1 -2.38419e-007
v 0.4 0.2 -2.38419e-007
v 0.3 0 -0.6
v 0.3 0.1 -0.6
v 0.4 0 -0.6
v 0.4 0.1 -0.6
v 0.3 0.1 -1
v 0.3 0.2 -1
v 0.4 0.1 -1
v 0.4 0.2 -1
v 0.3 0 -1.1
v 0.3 0.1 -1.1
v 0.4 0 -1.1
v 0.4 0.1 -1.1
v 0.3 0.2 -1.7
v 0.3 0.3 -1.7
v 0.4 0.2 -1.7
v 0.4 0.3 -1.7
v 0.3 0.1 1.5
v 0.3 0.2 1.5
v 0.3 0.3 1.5
v 0.4 0.1 1.5
v 0.4 0.2 1.5
v 0.4 0.3 1.5
v 0.3 0.1 0.9
v 0.3 0.2 0.9
v 0.4 0.1 0.9
v 0.4 0.2 0.9
v 0.3 0.1 0.6
v 0.3 0.2 0.6
v 0.4 0.1 0.6
v 0.4 0.2 0.6
v 0.3 0.1 0.3
v 0.3 0.2 0.3
v 0.4 0.1 0.3
v 0.4 0.2 0.3
v 0.3 0 0.2
v 0.3 0.1 0.2
v 0.4 0 0.2
v 0.4 0.1 0.2
v 0.3 0.1 0.0999999
v 0.3 0.2 0.0999999
v 0.4 0.1 0.0999999
v 0.4 0.2 0.0999999
v 0.3 0 -0.3
v 0.3 0.1 -0.3
v 0.4 0 -0.3
v 0.4 0.1 -0.3
v 0.3 0.1 -0.8
v 0.3 0.2 -0.8
v 0.4 0.1 -0.8
v 0.4 0.2 -0.8
v 0.3 0 -0.9
v 0.3 0.1 -0.9
v 0.4 0 -0.9
v 0.4 0.1 -0.9
v 0.3 0.2 -1.6
v 0.3 0.3 -1.6
v 0.4 0.2 -1.6
v 0.4 0.3 -1.6
v 0.3 0 -1.7
v 0.3 0.1 -1.7
v 0.4 0 -1.7
v 0.4 0.1 -1.7
v -1.3 0 -1.8
v -1.3 0.3 -1.8
v 0.3 0 -1.8
v 0.3 0.1 -1.8
v 0.4 0.1 -1.8
v 0.4 0.3 -1.8
v -1.3 0 2
v 0.4 0 2
v 0.3 0 1.4
v 0.4 0 1.4
v 0.3 0 1.3
v 0.4 0 1.3
v 0.3 0 0.3
v 0.4 0 0.3
v 0.3 0 0.2
v 0.4 0 0.2
v 0.3 0 -2.38419e-007
v 0.4 0 -2.38419e-007
v 0.3 0 -0.1
v 0.4 0 -0.1
v 0.3 0 -0.3
v 0.4 0 -0.3
v 0.3 0 -0.6
v 0.4 0 -0.6
v 0.3 0 -0.9
v 0.4 0 -0.9
v 0.3 0 -1.1
v 0.4 0 -1.1
v 0.3 0 -1.7
v 0.4 0 -1.7
v -1.3 0 -1.8
v 0.3 0 -1.8
v 0.3 0.1 0.2
v 0.4 0.1 0.2
v 0.3 0.1 0.0999999
v 0.4 0.1 0.0999999
v 0.3 0.1 -0.3
v 0.4 0.1 -0.3
v 0.3 0.1 -0.6
v 0.4 0.1 -0.6
v 0.3 0.1 -1
v 0.4 0.1 -1
v 0.3 0.1 -1.1
v 0.4 0.1 -1.1
v 0.3 0.1 -1.7
v 0.4 0.1 -1.7
v 0.3 0.1 -1.8
v 0.4 0.1 -1.8
v 0.3 0.2 0.9
v 0.4 0.2 0.9
v 0.3 0.2 0.7
v 0.4 0.2 0.7
v 0.3 0.2 0.6
v 0.4 0.2 0.6
v 0.3 0.2 0.5
v 0.4 0.2 0.5
v 0.3 0.2 0.3
v 0.4 0.2 0.3
v 0.3 0.2 0.2
v 0.4 0.2 0.2
v 0.3 0.2 0.0999999
v 0.4 0.2 0.0999999
v 0.3 0.2 -2.38419e-007
v 0.4 0.2 -2.38419e-007
v 0.3 0.2 -0.8
v 0.4 0.2 -0.8
v 0.3 0.2 -1
v 0.4 0.2 -1
v 0.3 0.1 1.5
v 0.4 0.1 1.5
v 0.3 0.1 1.4
v 0.4 0.1 1.4
v 0.3 0.1 1.3
v 0.4 0.1 1.3
v 0.3 0.1 0.9
v 0.4 0.1 0.9
v 0.3 0.1 0.7
v 0.4 0.1 0.7
v 0.3 0.1 0.6
v 0.4 0.1 0.6
v 0.3 0.1 0.5
v 0.4 0.1 0.5
v 0.3 0.1 0.3
v 0.4 0.1 0.3
v 0.3 0.1 0.2
v 0.4 0.1 0.2
v 0.3 0.1 -0.8
v 0.4 0.1 -0.8
v 0.3 0.1 -0.9
v 0.4 0.1 -0.9
v 0.3 0.2 1.3
v 0.4 0.2 1.3
v 0.3 0.2 1.2
v 0.4 0.2 1.2
v 0.3 0.2 -1.6
v 0.4 0.2 -1.6
v 0.3 0.2 -1.7
v 0.4 0.2 -1.7
v -1.3 0.3 2
v -0.0999999 0.3 2
v 0 0.3 2
v 0.4 0.3 2
v -1.2 0.3 1.9
v -1.1 0.3 1.9
v -1 0.3 1.9
v -0.9 0.3 1.9
v -0.6 0.3 1.9
v -0.5 0.3 1.9
v -0.0999999 0.3 1.9
v 0 0.3 1.9
v -1.2 0.3 1.8
v -1.1 0.3 1.8
v -1 0.3 1.8
v -0.9 0.3 1.8
v -0.6 0.3 1.8
v -0.5 0.3 1.8
v -0.9 0.3 1.6
v -0.8 0.3 1.6
v -0.3 0.3 1.6
v -0.2 0.3 1.6
v -0.9 0.3 1.5
v -0.8 0.3 1.5
v -0.3 0.3 1.5
v -0.2 0.3 1.5
v 0.3 0.3 1.5
v 0.4 0.3 1.5
v -1 0.3 1.4
v -0.9 0.3 1.4
v -1 0.3 1.3
v -0.9 0.3 1.3
v 0.2 0.3 1.3
v 0.3 0.3 1.3
v -0.3 0.3 1.2
v -0.2 0.3 1.2
v 0.2 0.3 1.2
v 0.3 0.3 1.2
v 0.4 0.3 1.2
v -0.9 0.3 1.1
v -0.8 0.3 1.1
v -0.3 0.3 1.1
v -0.2 0.3 1.1
v -0.9 0.3 1
v -0.8 0.3 1
v -1 0.3 0.7
v -0.9 0.3 0.7
v 0.2 0.3 0.7
v 0.3 0.3 0.7
v -1 0.3 0.6
v -0.9 0.3 0.6
v 0.2 0.3 0.6
v 0.3 0.3 0.6
v -0.8 0.3 0.0999999
v -0.7 0.3 0.0999999
v -0.8 0.3 -2.38419e-007
v -0.7 0.3 -2.38419e-007
v -0.3 0.3 -0.2
v -0.2 0.3 -0.2
v 0.3 0.3 -0.2
v 0.4 0.3 -0.2
v -0.6 0.3 -0.3
v -0.5 0.3 -0.3
v -0.4 0.3 -0.3
v -0.3 0.3 -0.3
v -0.2 0.3 -0.3
v 0.3 0.3 -0.3
v 0.4 0.3 -0.3
v -0.6 0.3 -0.4
v -0.5 0.3 -0.4
v -0.4 0.3 -0.4
v -0.3 0.3 -0.4
v 0 0.3 -0.4
v 0.1 0.3 -0.4
v 0 0.3 -0.5
v 0.1 0.3 -0.5
v -1.3 0.3 -0.7
v -1.2 0.3 -0.7
v -1.3 0.3 -0.8
v -1.2 0.3 -0.8
v -0.6 0.3 -0.8
v -0.4 0.3 -0.8
v -0.6 0.3 -0.9
v -0.4 0.3 -0.9
v 0.2 0.3 -0.9
v 0.3 0.3 -0.9
v -0.8 0.3 -1
v -0.7 0.3 -1
v 0.2 0.3 -1
v 0.3 0.3 -1
v -0.8 0.3 -1.1
v -0.7 0.3 -1.1
v 0.2 0.3 -1.2
v 0.3 0.3 -1.2
v -0.0999999 0.3 -1.3
v 0 0.3 -1.3
v 0.2 0.3 -1.3
v 0.3 0.3 -1.3
v -0.0999999 0.3 -1.4
v 0 0.3 -1.4
v -1 0.3 -1.6
v -0.9 0.3 -1.6
v 0.3 0.3 -1.6
v 0.4 0.3 -1.6
v -1 0.3 -1.7
v -0.9 0.3 -1.7
v 0.3 0.3 -1.7
v 0.4 0.3 -1.7
v -1.3 0.3 -1.8
v 0.4 0.3 -1.8

# faces
f 3/5/1 2/5/1 1/5/1
f 4/5/1 2/5/1 3/5/1
f 5/5/1 3/5/1 1/5/1
f 6/1/1 4/1/1 3/1/1
f 6/5/1 3/5/1 5/5/1
f 7/5/1 2/5/1 4/5/1
f 7/1/1 4/1/1 6/1/1
f 8/5/1 2/5/1 7/5/1
f 9/5/2 10/5/2 25/5/2
f 25/5/2 10/5/2 26/5/2
f 26/5/2 10/5/2 27/5/2
f 11/5/2 12/5/2 28/5/2
f 28/5/2 12/5/2 29/5/2
f 13/5/2 14/5/2 31/5/2
f 31/5/2 14/5/2 32/5/2
f 32/5/2 14/5/2 33/5/2
f 15/5/2 16/5/2 34/5/2
f 34/5/2 16/5/2 35/5/2
f 17/5/2 18/5/2 36/5/2
f 18/5/2 19/5/2 36/5/2
f 36/5/2 19/5/2 37/5/2
f 20/5/2 21/5/2 39/5/2
f 39/5/2 21/5/2 40/5/2
f 22/5/2 23/5/2 41/5/2
f 41/5/2 23/5/2 42/5/2
f 24/5/2 25/5/2 43/5/2
f 43/5/2 25/5/2 44/5/2
f 26/5/2 27/5/2 45/5/2
f 45/5/2 27/5/2 46/5/2
f 31/5/2 32/5/2 47/5/2
f 30/5/2 31/5/2 47/5/2
f 47/5/2 32/5/2 48/5/2
f 36/5/2 37/5/2 51/5/2
f 37/4/2 38/4/2 52/4/2
f 51/5/2 37/5/2 52/5/2
f 52/4/2 38/4/2 53/4/2
f 49/5/2 50/5/2 54/5/2
f 54/5/2 50/5/2 55/5/2
f 56/5/2 57/5/2 68/5/2
f 68/5/2 57/5/2 69/5/2
f 57/4/2 58/4/2 70/4/2
f 69/5/2 57/5/2 70/5/2
f 58/5/2 59/5/2 71/5/2
f 70/4/2 58/4/2 71/4/2
f 71/5/2 59/5/2 72/5/2
f 72/5/2 59/5/2 73/5/2
f 73/5/2 59/5/2 74/5/2
f 74/5/2 59/5/2 75/5/2
f 75/5/2 59/5/2 76/5/2
f 59/4/2 60/4/2 77/4/2
f 76/5/2 59/5/2 77/5/2
f 77/4/2 60/4/2 78/4/2
f 61/3/2 62/3/2 80/3/2
f 62/5/2 63/5/2 81/5/2
f 80/3/2 62/3/2 81/3/2
f 81/5/2 63/5/2 82/5/2
f 64/5/2 65/5/2 83/5/2
f 83/5/2 65/5/2 84/5/2
f 84/5/2 65/5/2 85/5/2
f 66/5/2 67/5/2 87/5/2
f 87/5/2 67/5/2 88/5/2
f 88/5/2 67/5/2 89/5/2
f 89/5/2 67/5/2 90/5/2
f 68/3/2 69/3/2 92/3/2
f 56/5/2 68/5/2 92/5/2
f 92/3/2 69/3/2 93/3/2
f 71/5/2 72/5/2 94/5/2
f 94/5/2 72/5/2 95/5/2
f 95/5/2 72/5/2 96/5/2
f 73/2/2 74/2/2 97/2/2
f 97/2/2 74/2/2 98/2/2
f 75/2/2 76/2/2 99/2/2
f 76/5/2 77/5/2 100/5/2
f 99/2/2 76/2/2 100/2/2
f 100/5/2 77/5/2 101/5/2
f 78/3/2 79/3/2 102/3/2
f 102/3/2 79/3/2 103/3/2
f 81/5/2 82/5/2 104/5/2
f 83/5/2 84/5/2 104/5/2
f 82/5/2 83/5/2 104/5/2
f 80/5/2 81/5/2 104/5/2
f 104/5/2 84/5/2 105/5/2
f 105/5/2 84/5/2 106/5/2
f 106/5/2 84/5/2 107/5/2
f 87/5/2 88/5/2 108/5/2
f 86/5/2 87/5/2 108/5/2
f 88/3/2 89/3/2 109/3/2
f 108/5/2 88/5/2 109/5/2
f 90/5/2 91/5/2 110/5/2
f 109/3/2 89/3/2 110/3/2
f 89/5/2 90/5/2 110/5/2
f 110/5/2 91/5/2 111/5/2
f 111/5/2 91/5/2 112/5/2
f 92/5/2 93/5/2 113/5/2
f 56/5/2 92/5/2 113/5/2
f 113/5/2 93/5/2 114/5/2
f 97/5/2 98/5/2 115/5/2
f 100/5/2 101/5/2 115/5/2
f 102/5/2 103/5/2 115/5/2
f 104/5/2 105/5/2 115/5/2
f 103/5/2 104/5/2 115/5/2
f 95/5/2 96/5/2 115/5/2
f 101/5/2 102/5/2 115/5/2
f 96/5/2 97/5/2 115/5/2
f 98/5/2 99/5/2 115/5/2
f 99/5/2 100/5/2 115/5/2
f 105/1/2 106/1/2 116/1/2
f 115/5/2 105/5/2 116/5/2
f 108/5/2 109/5/2 117/5/2
f 116/1/2 106/1/2 117/1/2
f 107/5/2 108/5/2 117/5/2
f 110/5/2 111/5/2 117/5/2
f 106/5/2 107/5/2 117/5/2
f 109/5/2 110/5/2 117/5/2
f 117/5/2 111/5/2 118/5/2
f 112/5/2 91/5/2 119/5/2
f 119/5/2 91/5/2 120/5/2
f 123/5/3 122/5/3 121/5/3
f 124/5/3 122/5/3 123/5/3
f 125/5/3 123/5/3 121/5/3
f 125/1/3 124/1/3 123/1/3
f 126/1/3 124/1/3 125/1/3
f 127/5/3 125/5/3 121/5/3
f 127/5/3 126/5/3 125/5/3
f 128/5/3 126/5/3 127/5/3
f 131/5/3 130/5/3 129/5/3
f 132/5/3 130/5/3 131/5/3
f 135/5/3 134/5/3 133/5/3
f 136/5/3 134/5/3 135/5/3
f 139/2/3 138/2/3 137/2/3
f 140/2/3 138/2/3 139/2/3
f 143/2/3 142/2/3 141/2/3
f 144/2/3 142/2/3 143/2/3
f 147/3/3 146/3/3 145/3/3
f 148/3/3 146/3/3 147/3/3
f 152/3/3 150/3/3 149/3/3
f 153/5/3 151/5/3 150/5/3
f 153/3/3 150/3/3 152/3/3
f 154/5/3 151/5/3 153/5/3
f 157/5/3 156/5/3 155/5/3
f 158/5/3 156/5/3 157/5/3
f 161/5/3 160/5/3 159/5/3
f 162/5/3 160/5/3 161/5/3
f 165/5/3 164/5/3 163/5/3
f 166/5/3 164/5/3 165/5/3
f 169/5/3 168/5/3 167/5/3
f 170/5/3 168/5/3 169/5/3
f 171/3/4 172/3/4 174/3/4
f 172/5/4 173/5/4 175/5/4
f 174/3/4 172/3/4 175/3/4
f 175/5/4 173/5/4 176/5/4
f 177/5/4 178/5/4 179/5/4
f 179/5/4 178/5/4 180/5/4
f 181/2/4 182/2/4 183/2/4
f 183/2/4 182/2/4 184/2/4
f 185/5/4 186/5/4 187/5/4
f 187/5/4 186/5/4 188/5/4
f 189/4/4 190/4/4 191/4/4
f 191/4/4 190/4/4 192/4/4
f 193/3/4 194/3/4 195/3/4
f 195/3/4 194/3/4 196/3/4
f 197/5/4 198/5/4 199/5/4
f 199/5/4 198/5/4 200/5/4
f 201/5/4 202/5/4 203/5/4
f 203/5/4 202/5/4 204/5/4
f 205/5/4 206/5/4 207/5/4
f 207/5/4 206/5/4 208/5/4
f 209/5/4 210/5/4 211/5/4
f 211/5/4 210/5/4 212/5/4
f 213/5/4 214/5/4 215/5/4
f 215/5/4 214/5/4 216/5/4
f 217/5/4 218/5/4 219/5/4
f 219/5/4 218/5/4 220/5/4
f 220/5/4 218/5/4 221/5/4
f 221/5/4 218/5/4 222/5/4
f 225/5/5 224/5/5 223/5/5
f 226/5/5 224/5/5 225/5/5
f 227/5/5 225/5/5 223/5/5
f 227/4/5 226/4/5 225/4/5
f 228/4/5 226/4/5 227/4/5
f 229/5/5 227/5/5 223/5/5
f 229/5/5 228/5/5 227/5/5
f 230/5/5 228/5/5 229/5/5
f 231/5/5 229/5/5 223/5/5
f 231/4/5 230/4/5 229/4/5
f 232/4/5 230/4/5 231/4/5
f 233/5/5 231/5/5 223/5/5
f 235/5/5 233/5/5 223/5/5
f 235/3/5 234/3/5 233/3/5
f 236/3/5 234/3/5 235/3/5
f 237/5/5 235/5/5 223/5/5
f 237/5/5 236/5/5 235/5/5
f 238/5/5 236/5/5 237/5/5
f 239/5/5 237/5/5 223/5/5
f 241/5/5 239/5/5 223/5/5
f 241/5/5 240/5/5 239/5/5
f 242/5/5 240/5/5 241/5/5
f 243/5/5 241/5/5 223/5/5
f 245/5/5 243/5/5 223/5/5
f 245/5/5 244/5/5 243/5/5
f 246/5/5 244/5/5 245/5/5
f 247/5/5 245/5/5 223/5/5
f 248/5/5 245/5/5 247/5/5
f 251/3/5 250/3/5 249/3/5
f 252/3/5 250/3/5 251/3/5
f 255/5/5 254/5/5 253/5/5
f 256/5/5 254/5/5 255/5/5
f 259/5/5 258/5/5 257/5/5
f 260/5/5 258/5/5 259/5/5
f 263/5/5 262/5/5 261/5/5
f 264/5/5 262/5/5 263/5/5
f 267/5/5 266/5/5 265/5/5
f 268/5/5 266/5/5 267/5/5
f 271/5/5 270/5/5 269/5/5
f 272/5/5 270/5/5 271/5/5
f 275/5/5 274/5/5 273/5/5
f 276/5/5 274/5/5 275/5/5
f 279/5/5 278/5/5 277/5/5
f 280/5/5 278/5/5 279/5/5
f 283/5/5 282/5/5 281/5/5
f 284/5/5 282/5/5 283/5/5
f 285/5/6 286/5/6 287/5/6
f 287/5/6 286/5/6 288/5/6
f 287/4/6 288/4/6 289/4/6
f 289/4/6 288/4/6 290/4/6
f 291/5/6 292/5/6 293/5/6
f 293/5/6 292/5/6 294/5/6
f 295/5/6 296/5/6 297/5/6
f 297/5/6 296/5/6 298/5/6
f 299/4/6 300/4/6 301/4/6
f 301/4/6 300/4/6 302/4/6
f 303/5/6 304/5/6 305/5/6
f 305/5/6 304/5/6 306/5/6
f 307/5/6 308/5/6 309/5/6
f 309/5/6 308/5/6 310/5/6
f 311/5/6 312/5/6 313/5/6
f 313/5/6 312/5/6 314/5/6
f 315/5/6 316/5/6 319/5/6
f 319/5/6 316/5/6 320/5/6
f 320/5/6 316/5/6 321/5/6
f 321/5/6 316/5/6 322/5/6
f 322/5/6 316/5/6 323/5/6
f 323/5/6 316/5/6 324/5/6
f 316/1/6 317/1/6 325/1/6
f 324/5/6 316/5/6 325/5/6
f 317/5/6 318/5/6 326/5/6
f 325/1/6 317/1/6 326/1/6
f 315/5/6 319/5/6 327/5/6
f 319/4/6 320/4/6 327/4/6
f 320/5/6 321/5/6 328/5/6
f 327/4/6 320/4/6 328/4/6
f 321/4/6 322/4/6 329/4/6
f 328/5/6 321/5/6 329/5/6
f 322/5/6 323/5/6 330/5/6
f 329/4/6 322/4/6 330/4/6
f 323/4/6 324/4/6 331/4/6
f 330/5/6 323/5/6 331/5/6
f 324/5/6 325/5/6 332/5/6
f 331/4/6 324/4/6 332/4/6
f 325/5/6 326/5/6 332/5/6
f 330/5/6 331/5/6 333/5/6
f 329/5/6 330/5/6 333/5/6
f 331/5/6 332/5/6 333/5/6
f 327/5/6 328/5/6 333/5/6
f 328/5/6 329/5/6 333/5/6
f 333/5/6 332/5/6 334/5/6
f 332/5/6 326/5/6 335/5/6
f 334/5/6 332/5/6 335/5/6
f 335/5/6 326/5/6 336/5/6
f 333/4/6 334/4/6 337/4/6
f 327/5/6 333/5/6 337/5/6
f 334/5/6 335/5/6 338/5/6
f 337/4/6 334/4/6 338/4/6
f 335/4/6 336/4/6 339/4/6
f 338/5/6 335/5/6 339/5/6
f 336/5/6 326/5/6 340/5/6
f 339/4/6 336/4/6 340/4/6
f 326/5/6 318/5/6 341/5/6
f 340/5/6 326/5/6 341/5/6
f 341/5/6 318/5/6 342/5/6
f 338/5/6 339/5/6 343/5/6
f 339/5/6 340/5/6 343/5/6
f 340/5/6 341/5/6 343/5/6
f 327/5/6 337/5/6 343/5/6
f 337/5/6 338/5/6 343/5/6
f 343/5/6 341/5/6 344/5/6
f 327/5/6 343/5/6 345/5/6
f 343/1/6 344/1/6 345/1/6
f 344/5/6 341/5/6 346/5/6
f 345/1/6 344/1/6 346/1/6
f 346/5/6 341/5/6 347/5/6
f 347/5/6 341/5/6 348/5/6
f 345/5/6 346/5/6 349/5/6
f 346/5/6 347/5/6 349/5/6
f 349/5/6 347/5/6 350/5/6
f 347/4/6 348/4/6 351/4/6
f 350/5/6 347/5/6 351/5/6
f 351/4/6 348/4/6 352/4/6
f 345/5/6 349/5/6 354/5/6
f 354/5/6 349/5/6 355/5/6
f 349/4/6 350/4/6 356/4/6
f 355/5/6 349/5/6 356/5/6
f 351/5/6 352/5/6 357/5/6
f 356/4/6 350/4/6 357/4/6
f 352/5/6 353/5/6 357/5/6
f 350/5/6 351/5/6 357/5/6
f 354/4/6 355/4/6 358/4/6
f 345/5/6 354/5/6 358/5/6
f 355/5/6 356/5/6 359/5/6
f 358/4/6 355/4/6 359/4/6
f 356/5/6 357/5/6 359/5/6
f 327/5/6 345/5/6 360/5/6
f 345/5/6 358/5/6 360/5/6
f 358/5/6 359/5/6 360/5/6
f 360/5/6 359/5/6 361/5/6
f 359/5/6 357/5/6 362/5/6
f 361/5/6 359/5/6 362/5/6
f 357/5/6 353/5/6 362/5/6
f 362/5/6 353/5/6 363/5/6
f 360/4/6 361/4/6 364/4/6
f 327/5/6 360/5/6 364/5/6
f 361/5/6 362/5/6 365/5/6
f 364/4/6 361/4/6 365/4/6
f 362/4/6 363/4/6 366/4/6
f 365/5/6 362/5/6 366/5/6
f 363/5/6 353/5/6 367/5/6
f 366/4/6 363/4/6 367/4/6
f 365/5/6 366/5/6 368/5/6
f 364/5/6 365/5/6 368/5/6
f 366/5/6 367/5/6 368/5/6
f 368/5/6 367/5/6 369/5/6
f 364/5/6 368/5/6 370/5/6
f 368/4/6 369/4/6 370/4/6
f 369/5/6 367/5/6 371/5/6
f 370/4/6 369/4/6 371/4/6
f 370/5/6 371/5/6 372/5/6
f 371/5/6 367/5/6 372/5/6
f 372/5/6 367/5/6 373/5/6
f 367/5/6 353/5/6 374/5/6
f 373/5/6 367/5/6 374/5/6
f 374/5/6 353/5/6 375/5/6
f 370/5/6 372/5/6 376/5/6
f 376/5/6 372/5/6 377/5/6
f 377/5/6 372/5/6 378/5/6
f 372/1/6 373/1/6 379/1/6
f 378/5/6 372/5/6 379/5/6
f 373/5/6 374/5/6 380/5/6
f 379/1/6 373/1/6 380/1/6
f 374/1/6 375/1/6 381/1/6
f 380/5/6 374/5/6 381/5/6
f 381/1/6 375/1/6 382/1/6
f 370/5/6 376/5/6 383/5/6
f 376/4/6 377/4/6 383/4/6
f 377/5/6 378/5/6 384/5/6
f 383/4/6 377/4/6 384/4/6
f 378/4/6 379/4/6 385/4/6
f 384/5/6 378/5/6 385/5/6
f 379/5/6 380/5/6 386/5/6
f 385/4/6 379/4/6 386/4/6
f 381/5/6 382/5/6 386/5/6
f 380/5/6 381/5/6 386/5/6
f 386/5/6 382/5/6 387/5/6
f 387/5/6 382/5/6 388/5/6
f 383/5/6 384/5/6 389/5/6
f 384/5/6 385/5/6 389/5/6
f 387/1/6 388/1/6 389/1/6
f 386/5/6 387/5/6 389/5/6
f 385/5/6 386/5/6 389/5/6
f 388/5/6 382/5/6 390/5/6
f 389/1/6 388/1/6 390/1/6
f 315/5/6 327/5/6 391/5/6
f 370/5/6 383/5/6 391/5/6
f 389/5/6 390/5/6 391/5/6
f 327/5/6 364/5/6 391/5/6
f 383/5/6 389/5/6 391/5/6
f 364/5/6 370/5/6 391/5/6
f 391/5/6 390/5/6 392/5/6
f 391/1/6 392/1/6 393/1/6
f 392/5/6 390/5/6 394/5/6
f 393/1/6 392/1/6 394/1/6
f 394/5/6 390/5/6 395/5/6
f 395/5/6 390/5/6 396/5/6
f 393/5/6 394/5/6 397/5/6
f 394/5/6 395/5/6 397/5/6
f 395/4/6 396/4/6 397/4/6
f 396/5/6 390/5/6 398/5/6
f 397/4/6 396/4/6 398/4/6
f 390/5/6 382/5/6 399/5/6
f 398/5/6 390/5/6 399/5/6
f 399/5/6 382/5/6 400/5/6
f 397/5/6 398/5/6 401/5/6
f 393/5/6 397/5/6 401/5/6
f 398/5/6 399/5/6 401/5/6
f 401/5/6 399/5/6 402/5/6
f 399/4/6 400/4/6 403/4/6
f 402/5/6 399/5/6 403/5/6
f 400/5/6 382/5/6 404/5/6
f 403/4/6 400/4/6 404/4/6
f 401/4/6 402/4/6 405/4/6
f 393/5/6 401/5/6 405/5/6
f 402/5/6 403/5/6 406/5/6
f 405/4/6 402/4/6 406/4/6
f 403/5/6 404/5/6 406/5/6
f 405/5/6 406/5/6 407/5/6
f 406/5/6 404/5/6 407/5/6
f 404/5/6 382/5/6 408/5/6
f 407/5/6 404/5/6 408/5/6
f 405/5/6 407/5/6 409/5/6
f 409/5/6 407/5/6 410/5/6
f 407/1/6 408/1/6 411/1/6
f 410/5/6 407/5/6 411/5/6
f 408/5/6 382/5/6 412/5/6
f 411/1/6 408/1/6 412/1/6
f 409/4/6 410/4/6 413/4/6
f 405/5/6 409/5/6 413/5/6
f 410/5/6 411/5/6 414/5/6
f 413/4/6 410/4/6 414/4/6
f 411/5/6 412/5/6 414/5/6
f 393/5/6 405/5/6 415/5/6
f 405/5/6 413/5/6 415/5/6
f 413/5/6 414/5/6 415/5/6
f 415/5/6 414/5/6 416/5/6
f 414/5/6 412/5/6 417/5/6
f 416/5/6 414/5/6 417/5/6
f 412/5/6 382/5/6 417/5/6
f 417/5/6 382/5/6 418/5/6
f 415/4/6 416/4/6 419/4/6
f 393/5/6 415/5/6 419/5/6
f 416/5/6 417/5/6 420/5/6
f 419/4/6 416/4/6 420/4/6
f 420/5/6 417/5/6 421/5/6
f 393/5/6 419/5/6 423/5/6
f 421/5/6 422/5/6 423/5/6
f 420/5/6 421/5/6 423/5/6
f 419/5/6 420/5/6 423/5/6
f 423/5/6 422/5/6 424/5/6
